<svg xmlns="http://www.w3.org/2000/svg" xmlns:xlink="http://www.w3.org/1999/xlink" width="1200" height="217.461" viewBox="0 0 900 163.096" xmlns:v="https://vecta.io/nano"><style><![CDATA[.B{overflow:visible}.C{stroke:none}]]></style><defs><symbol id="A" class="B"><path d="M4.516.156c2.078 0 3.359-1.187 3.266-2.734l-1.078-.141c.094 1.281-.891 1.906-2.156 1.906-1.406 0-2.531-.797-2.531-3.781 0-2.906 1.078-3.766 2.453-3.766 1.344 0 2.203.609 1.984 2.156l1.234-.109C7.906-8 6.813-9.281 4.5-9.281 2.203-9.281.703-7.922.703-4.609S2.203.156 4.516.156zm0 0" class="C"/></symbol><symbol id="B" class="B"><path d="M5.234-.344A.31.31 0 0 0 5.578 0h1.703v-.812h-.75c-.172 0-.266-.094-.266-.266v-5.25a.31.31 0 0 0-.344-.344H4.125v.813h.75c.172 0 .266.094.266.266v3.984c-.437.438-.953.766-1.641.766-.766 0-1.062-.391-1.062-1.234v-4.25a.31.31 0 0 0-.344-.344H.266v.813h.75c.172 0 .266.094.266.266v3.719c0 1.438.797 2.031 1.984 2.031.813 0 1.453-.422 1.969-1.109zm0 0" class="C"/></symbol><symbol id="C" class="B"><path d="M.516 0h3.406v-.812h-1c-.187 0-.281-.094-.281-.266v-3.516c.141-.484.578-1.234 1.359-1.234.797 0 .672.875.531 1.313l1.016-.109c.359-.844.094-2.203-1.187-2.203-.937 0-1.531.594-1.812 1.266v-.766c0-.219-.109-.344-.328-.344H.516v.813h.734c.188 0 .281.094.281.266v4.516c0 .172-.094.266-.281.266H.516zm0 0" class="C"/></symbol><symbol id="D" class="B"><path d="M.672-1.906a1.95 1.95 0 0 0-.078.5C.594-.266 1.938.156 3.016.156c1.609 0 2.688-.734 2.688-1.953 0-1.422-1.25-1.703-2.344-2.062-.781-.266-1.437-.453-1.437-1.203 0-.562.406-.937 1.188-.937S4.5-5.656 4.5-4.953a1.64 1.64 0 0 1-.047.375l1.141-.141c.016-.094.016-.234.016-.391 0-1.141-1.016-1.719-2.359-1.719-1.484 0-2.484.672-2.484 1.906 0 1.297 1.078 1.719 2.094 2.063.906.297 1.656.5 1.656 1.219 0 .5-.359.969-1.437.969-.812 0-1.453-.312-1.453-1.047 0-.094.016-.187.031-.297zm0 0" class="C"/></symbol><symbol id="E" class="B"><path d="M.641 0h4.047C7.172 0 8.5-1.641 8.5-4.641c0-2.844-1.312-4.469-3.812-4.469H.641v.875h.891c.172 0 .266.094.266.266v6.828c0 .172-.094.266-.266.266H.641zm2.328-.953v-7.203h1.734c1.766 0 2.516 1.359 2.516 3.547 0 2.234-.734 3.656-2.516 3.656zm0 0" class="C"/></symbol><symbol id="F" class="B"><path d="M.641 0H5c1.594 0 3.094-.844 3.094-2.625 0-1.344-.812-2.062-2.062-2.25v-.031c1-.187 1.75-.797 1.75-2 0-1.672-1.391-2.203-2.891-2.203H.641v.875h.891c.141 0 .266.094.266.266v6.828c0 .172-.094.266-.266.266H.641zm2.313-.953v-3.359H4.75c1.031 0 2.047.422 2.047 1.641 0 1.281-1.047 1.719-2.047 1.719zm0-4.328v-2.875h1.813c1.141 0 1.734.469 1.734 1.391 0 1.219-.922 1.484-1.875 1.484zm0 0" class="C"/></symbol></defs><g transform="matrix(10.238192 0 0 10.238192 -536.82537 -516.78495)" fill="#1a1a1a"><path d="M61.692 50.481l-.345.012c-1.28.045-2.541.206-3.569.456l-.69.197c-.814.263-1.361.589-1.568.936a.53.53 0 0 0-.09.329.45.45 0 0 0 .026.192.89.89 0 0 0 .082.162c.071.11.11.204.29.7a18.83 18.83 0 0 1 .65 2.207l.055.244a20.83 20.83 0 0 1 .178.978c.125.828.196 1.7.195 2.397l-.089 1.987c-.044.578-.118 1.128-.192 1.414l-.025.118c.006.016.281.243.422.349.451.338.828.529 1.198.607.104.022.146.025.396.032l.282.008c.001.001.002.014.002.03v.029l-.287-.006c-.336-.007-.303-.002-.738-.12-.31-.085-.633-.195-.876-.3a3.25 3.25 0 0 1-.592-.338c-.079-.061-.204-.182-.25-.243l-.039-.052.002-.217c.003-.39.03-.617.13-1.082l.03-.182-.003-.029-.107.002c-.321.007-.671.085-1.09.24a3.49 3.49 0 0 1-.191.056c-.713.191-1.303.446-1.748.756-.245.17-.493.399-.645.593l-.063.081.003.338.003.338.03.07c.085.195.325.446.68.712.182.136.41.285.488.319a18.67 18.67 0 0 0 1.997.679l.186.052c.028.009.212.057.452.117l1.039.228.14.028.172.032.238.041.531.085.182.028a28.2 28.2 0 0 0 1.16.143l2.115.15.219.01c.023.002.327.006.676.01l1.225-.018.783-.034.485-.024.452-.023.731-.037c.235-.011.198-.007.909-.103l.14-.018.2-.029.177-.027.596-.093.275-.047.294-.052.666-.13.196-.043.294-.067.228-.054.867-.237c1.045-.326 1.722-.699 2.005-1.106a.86.86 0 0 0 .162-.409 3.27 3.27 0 0 0-.015-.568c-.051-.229-.281-.488-.642-.722-.329-.214-.847-.456-1.384-.647l-.158-.058a19.78 19.78 0 0 0-.848-.273l-.266-.079-.307-.084-.165-.045c-.134-.037-.138-.037-.196-.025-.066.014-.154.045-.18.064-.02.015-.026-.035.084.668l.042.275.042.272c.006.035.002.047-.032.111-.068.126-.139.226-.208.295-.059.059-.139.11-.151.098-.002-.002 0-.031.005-.064.01-.06.045-.149.069-.176.011-.012.009-.045-.018-.233l-.177-1.486-.024-.238-.061-.95-.005-1.332c.041-1.165.15-2.047.395-3.193.069-.323.219-.875.346-1.275l.232-.679c.021-.049.02-.051-.018-.058-.021-.004-.039-.015-.048-.031l-.018-.028c-.002-.002-.015.005-.03.016l-.127.086c-.658.438-1.607.765-2.814.968l-1.058.144-1.132.085-2.479.025-.559-.016-.391-.014-.69-.023-.55-.016-.065-.002-.005.34-.005.34-.03.121c-.037.152-.036.062-.026 1.836l-.083 3.611-.039.768c-.006.117-.007.123-.043.194-.02.04-.043.076-.05.078-.022.009-.195-.023-.478-.087l-.839-.203c-.023-.007-.083-.023-.134-.035l-.092-.022.006-.107.062-1.985a19.01 19.01 0 0 0-.117-2.292l-.394-2.595-.067-.356c-.006-.037-.014-.071-.018-.077s-.077-.04-.164-.076c-.634-.264-.958-.421-1.157-.562-.056-.039-.067-.052-.068-.073s.002-.026.042-.026c.023 0 .058.008.077.018.055.028.353.146.498.197.466.165 1.116.323 1.731.422l.955.127 1.207.112c1.121.086 2.218.094 3.359.023 1.808-.112 3.33-.412 4.342-.856l.289-.136c.543-.268.814-.579.794-.913-.004-.076-.009-.09-.057-.19a1.09 1.09 0 0 0-.23-.329c-.277-.274-.746-.522-1.398-.739-.764-.254-1.687-.44-2.786-.563l-1.843-.126-1.376-.003" fill-rule="evenodd"/><use xlink:href="#A" x="81" y="63.25"/><use xlink:href="#B" x="89.343" y="63.25"/><use xlink:href="#C" x="96.984" y="63.25"/><use xlink:href="#D" x="102.951" y="63.25"/><use xlink:href="#B" x="109.296" y="63.25"/><use xlink:href="#D" x="116.937" y="63.25"/><use xlink:href="#E" x="123.188" y="63.25"/><use xlink:href="#F" x="132.246" y="63.25"/></g></svg>